<svg width="145" height="55" viewBox="0 0 145 55" fill="none" xmlns="http://www.w3.org/2000/svg">
<path d="M87.85 40V22.5H94.975C96.8417 22.5 98.475 22.875 99.875 23.625C101.292 24.3583 102.392 25.3833 103.175 26.7C103.958 28.0167 104.35 29.5333 104.35 31.25C104.35 32.9667 103.958 34.4833 103.175 35.8C102.392 37.1167 101.292 38.15 99.875 38.9C98.475 39.6333 96.8417 40 94.975 40H87.85ZM89.7 38.4H94.875C96.425 38.4 97.7667 38.1 98.9 37.5C100.05 36.8833 100.942 36.0417 101.575 34.975C102.208 33.8917 102.525 32.65 102.525 31.25C102.525 29.8333 102.208 28.5917 101.575 27.525C100.942 26.4583 100.05 25.625 98.9 25.025C97.7667 24.4083 96.425 24.1 94.875 24.1H89.7V38.4ZM110.154 30.325H119.404V31.9H110.154V30.325ZM110.354 38.4H120.879V40H108.504V22.5H120.504V24.1H110.354V38.4ZM129.959 40L122.209 22.5H124.209L131.459 38.975H130.359L137.659 22.5H139.534L131.784 40H129.959Z" fill="#D3D9D4"/>
<g clip-path="url(#clip0_336_340)">
<path d="M33.143 18.5608C32.5613 17.2683 31.815 16.2498 30.2348 16.2498C29.6841 16.2498 29.2105 16.6323 29.0612 17.1649C27.8362 21.5285 23.3941 24.584 21.0419 28.8184C20.7742 29.201 20.3418 30.0334 20.6661 30.4211C21.0882 30.9226 21.4639 31.3776 21.8139 31.8016C24.3258 31.2949 26.7553 30.8141 29.0098 30.3022C30.2194 30.0489 31.429 29.8007 32.6334 29.5525C32.4687 28.0429 32.3091 26.5177 32.2319 24.9666C32.0724 22.79 34.0592 20.5927 33.143 18.566V18.5608Z" fill="#D3D9D4"/>
<path d="M6.18182 43.9462C3.94277 47.1413 6.39285 48.4701 3.32511 50.8897C1.61108 52.2391 1.03459 53.6506 1.06033 54.0487C1.09636 54.5915 1.54931 55.0103 2.08977 55.0103H11.5555C13.2438 55.0103 21.15 54.638 23.4971 53.6402C24.5368 53.2007 27.8928 51.4067 29.3804 52.9009C29.6583 53.1801 29.8385 53.4231 29.9569 53.6454C30.3995 54.4674 31.2231 55.0103 32.1547 55.0103C32.1547 55.0103 51.2818 55.0103 53.1966 54.2916C55.1113 53.573 52.1877 50.6364 52.5738 49.1008C53.0679 47.1465 59.2188 45.5127 60.2071 44.732C61.1954 43.9514 60.6652 41.2887 57.7313 43.1707C56.1048 44.215 52.9958 46.2572 52.4657 43.9876C52.1877 42.7881 53.876 41.2422 54.4165 40.5442C55.2966 39.4068 55.2709 38.197 54.3393 37.7058C53.1348 37.0647 51.6987 38.4141 50.7311 37.9178C48.9141 36.9923 51.1789 33.8696 49.8097 29.1803C49.4391 27.9084 50.1597 26.2901 51.2921 24.7288C46.6647 26.4711 41.8367 27.6292 36.9365 28.6684C36.9468 32.7166 37.3225 36.8838 36.8438 40.9734C36.6277 43.212 37.3792 47.5498 37.2196 49.7885C37.1681 50.8742 36.1438 51.5153 35.3923 51.324C34.2651 51.0655 33.457 49.5972 33.2974 48.2529C33.0812 45.3731 33.0812 40.0789 33.1378 37.1991C33.2048 34.6916 32.9114 32.1531 32.6283 29.5628C31.4238 29.811 30.2142 30.0592 29.0046 30.3125C26.7501 30.8244 24.3155 31.3052 21.8088 31.8119C23.4662 33.8386 24.4596 35.219 26.1016 37.8144C27.7641 40.4408 30.0752 42.0384 30.7753 44.9854C30.8834 45.4972 30.1833 45.6885 29.8076 45.6885C28.248 45.6885 26.6935 47.0948 25.3501 46.3917C22.0765 44.7269 19.8168 41.3973 17.1866 38.0729C17.0785 37.8816 16.4351 37.8144 16.4351 38.3262C16.2755 41.0768 17.1351 43.2534 17.027 46.1332C16.9189 48.439 15.1843 50.1038 13.2541 48.439C11.7511 47.2241 11.9673 44.9802 11.3187 43.3826C10.2121 40.5804 10.3305 37.4938 10.2172 34.4952C6.89728 35.4361 3.706 36.5787 0.854439 38.0367C2.48611 39.4947 7.64878 41.8678 6.17667 43.9617L6.18182 43.9462Z" fill="#D3D9D4"/>
<path d="M10.1452 32.9958C9.82091 27.6808 9.23413 22.3711 10.1452 17.0562C10.7886 13.6025 11.0665 11.9636 13.3776 9.91623C14.9373 8.50995 17.8403 7.3932 19.5595 8.28764C19.719 8.34968 19.8837 8.73744 19.719 9.18207C18.9161 11.2294 17.0322 12.4444 16.605 14.7503C15.8535 19.1036 16.4454 23.2655 16.4454 27.6808C16.4454 27.8721 16.6616 28.1307 16.8211 27.8721C19.3433 24.222 21.922 21.2182 24.3927 17.2475C24.6346 16.8442 25.0207 16.2135 25.4376 15.5775C25.6589 15.2467 25.628 14.8072 25.3758 14.5021C24.5677 13.5302 24.0015 12.3876 24.3979 11.002C24.8817 9.27513 26.6009 8.76329 28.1039 8.50478C29.2311 8.37553 30.3583 8.37553 31.4856 8.12219C32.7106 7.95675 33.1018 8.59784 33.1481 8.95458C33.5651 11.8912 38.3571 11.002 41.1469 10.5573C42.2742 10.366 47.1074 9.21309 48.6104 9.66289C49.3619 9.85419 49.8972 10.304 49.5215 11.1984C48.3942 14.2695 46.1912 16.7667 43.561 17.8524C43.0257 18.1109 38.6763 17.9817 38.1924 19.4551C37.1527 22.3815 36.9365 25.4784 36.9416 28.6528C41.8418 27.6136 46.6699 26.4555 51.2973 24.7132C52.6561 22.8364 54.6018 21.0527 55.9709 20.0704C57.9526 18.6486 58.5291 17.6663 58.0247 17.1596C56.8254 16.3169 55.3378 17.6559 54.5606 17.444C53.7834 17.232 54.3393 15.7637 55.4819 14.709C57.2835 13.039 64.3969 11.4052 65.6683 11.0485C66.9397 10.6918 68.0721 9.77147 68 8.91839C67.9279 8.06532 67.3669 7.74477 66.2345 7.74477C64.0521 7.74477 57.2526 11.6844 55.4819 12.1135C54.0562 12.4599 53.1708 11.2553 54.8231 10.5366C54.8643 10.5211 54.9055 10.5056 54.9466 10.4901C55.4305 10.3454 58.6372 9.32166 57.8806 7.71375C57.2629 6.40053 55.2452 7.72926 54.9518 7.9309C54.9261 7.95158 54.8952 7.96709 54.8643 7.9826C53.1142 8.93907 53.2635 8.19457 53.2635 7.13986V3.85165C53.2635 2.86932 52.4966 2.06278 51.5186 2.02659C42.2536 2.01625 23.389 3.25191 22.7353 2.66769C22.1897 2.18169 22.8485 2.13516 23.2449 1.62332C23.4302 1.38549 23.4971 1.05977 23.4096 0.770245C23.1883 0.0515947 22.1588 -0.217253 20.6816 0.186018C18.9161 0.666842 18.9109 1.2459 12.9916 2.05244C12.2247 2.22306 2.36773 2.05244 2.36773 2.05244C1.35887 2.05244 0.545609 2.87449 0.545609 3.88267V9.26996C0.545609 10.8055 2.25963 11.7206 3.52585 10.8572C4.16926 10.4177 4.66854 9.99378 5.18841 9.48711C6.60389 8.10668 7.8032 7.75511 8.48778 8.06532C9.88782 8.70125 8.92529 10.2161 8.1635 10.5522C7.55613 10.821 6.39286 11.4207 4.41118 12.4703C1.80668 13.8455 1.19931 13.6749 0.828706 14.9313C0.808117 14.9985 0.777234 20.6133 0.772087 22.2729C0.76694 23.9325 1.7655 23.2397 2.5067 24.4754C3.4435 26.0471 1.25593 27.836 0.76694 29.3456C0.509578 30.1418 1.40005 31.5068 3.13981 30.5141C4.73545 29.6041 6.18182 32.2202 3.06775 33.2129C1.90962 33.58 1.80668 33.4662 1.0346 34.0608C-0.535308 35.2706 -0.0308804 37.0957 0.663995 37.8298C0.720615 37.8867 0.787529 37.9488 0.85959 38.016C3.71115 36.5528 6.90758 35.4154 10.2224 34.4744C10.2018 33.9781 10.1812 33.4869 10.14 32.9958H10.1452Z" fill="#D3D9D4"/>
</g>
<defs>
<clipPath id="clip0_336_340">
<rect width="68" height="55" fill="white"/>
</clipPath>
</defs>
</svg>
