<svg width="1500" height="112" viewBox="0 0 1500 112" fill="none" xmlns="http://www.w3.org/2000/svg">
<path d="M1371.72 0.473343C1391.63 0.499298 1408.22 0.473343 1408.22 0.473343C1408.22 0.473343 1378.72 1.80545 1349.22 4.47295C1259.11 12.6207 1220.72 44.6404 1145.22 51.4729C1117.22 54.0069 1098.22 44.4729 1095.22 34.9729C1094.27 31.975 1093 21.0396 1105.72 17.4733C1107.56 16.956 1091.6 15.7218 1069.72 15.9733C1050.08 16.1989 1031.38 17.7423 1007.72 20.9733C966.217 26.6408 946.927 38.9733 946.927 38.9733C946.927 38.9733 937.36 43.2841 934.717 48.8787C932.074 54.4733 937.356 58.152 939.717 58.9733C951.217 62.9733 980.717 48.8787 980.717 48.8787C980.717 48.8787 976.735 60.9733 971.717 66.8058C966.699 72.6384 958.136 77.5064 946.927 79.3677C935.717 81.229 926.226 81.1327 916.615 79.3677C907.003 77.6026 899.676 74.4662 894.463 68.3336C888.517 61.3372 894.463 48.8787 894.463 48.8787C894.463 48.8787 883.715 47.1566 877.558 48.8787C864.633 52.4941 851.91 60.1825 851.91 68.3336C851.91 80.8195 862.148 81.1617 858.322 90.6921C856.573 95.0477 850.233 100.543 839.085 103.178C828.596 105.658 816.934 105.016 809.356 103.178C805.276 102.189 793.748 98.2002 794.783 92.144C795.598 87.3757 811.105 83.4328 811.105 83.4328C811.105 83.4328 798.863 76.6679 766.802 80.8195C766.802 80.8195 748.732 82.9733 728.329 88.6595C704.861 95.2002 680.585 100.452 651.217 101.973C626.217 103.269 612.717 102.1 599.217 99.984C585.717 97.8675 569.006 93.688 552.217 84.4733C539.891 77.7083 530.217 69.9733 520.217 57.0091C510.634 44.5856 508.217 37.4733 492.717 32.0372C488.704 30.6299 477.717 28.9085 465.217 34.9409C452.717 40.9733 444.336 50.9408 431.217 57.0091C423.056 60.7839 413.621 64.4246 395.478 64.5587C382.502 64.6547 373.877 63.7806 364.217 58.8058C356.217 54.6861 351.885 47.3389 352.217 40.7483C352.464 35.8645 356.524 32.9322 360.171 31.0372C372.161 24.8058 393.717 27.8058 393.717 27.8058C393.717 27.8058 387.122 23.3058 370.217 23.3058C355.796 23.3058 316.217 32.0372 283.717 34.3058C203.901 39.8774 101.217 10.8473 45.717 10.3058C24.3528 10.0974 0.217041 15.2298 0.217041 15.2298V7.03421C0.217041 7.03421 47.6921 2.39725 74.217 7.03421C175.717 24.7779 227.717 31.1661 260.717 31.1661C294.156 31.1661 347.329 21.6913 361.085 20.4223C376.824 18.9705 383.378 18.9223 395.478 23.3058C404.978 26.7474 411.217 35.8576 411.217 35.8576C411.217 35.8576 399.217 32.0372 389.066 32.0372C379.648 32.0372 367.292 34.2795 366.332 40.7483C365.671 45.1992 367.497 49.169 372.161 52.0728C380.029 56.9718 392.291 57.7205 404.805 57.0091C433.258 55.3916 439.633 42.9219 450.856 34.9409C467.217 23.3058 483.826 19.8452 497.717 25.9733C514.717 33.4733 513.717 37.0449 530.217 57.0091C546.717 76.9733 576.458 98.4252 638.717 96.4995C680.164 95.2176 727.746 84.0167 748.732 79.9484C769.717 75.88 781.507 74.2427 801.195 77.0447C817.517 79.3677 823.929 85.1751 823.929 85.1751C823.929 85.1751 809.645 85.9989 806.441 89.5306C801.995 94.4324 817.232 96.8284 828.01 96.4995C840.07 96.1316 848.995 90.6921 848.995 85.1751C848.995 77.0849 842 73.8506 844.914 64.5587C847.773 55.4451 862.852 44.3414 877.558 41.9733C893.682 39.3772 901.009 41.7145 906.717 41.9733C906.717 51.7824 907.945 66.4001 923.217 47.4729C944.927 20.5676 1005.99 14.6636 1026.72 12.4733C1052.72 9.72652 1100.22 7.97334 1122.72 14.4733C1145.22 20.9733 1145.22 22.9133 1145.22 22.9133C1145.22 22.9133 1116.81 18.4229 1109.72 22.9133C1105.96 25.2903 1104.72 28.8063 1105.72 31.4729C1107.97 37.4729 1117.72 41.9733 1135.22 41.9733C1225.87 41.9733 1266.48 0.336197 1371.72 0.473343Z" fill="white" fill-opacity="0.7"/>
<path d="M1059.72 3.03845C911.717 13.4918 923.217 54.9729 923.217 54.9729C923.217 54.9729 925.71 63.4729 938.217 65.4729C950.724 67.4729 965.717 60.9729 965.717 60.9729C965.717 60.9729 957.202 76.8541 925.71 75.1635C894.217 73.4729 893.608 48.4498 910.608 38.9729C917.608 35.0707 918.108 34.4498 918.108 34.4498C918.108 34.4498 919.529 25.6385 882.805 32.4138C846.081 39.1891 801.749 71.6488 742.319 73.9368C713.173 75.059 693.353 74.1172 667.122 64.9353C640.89 55.7535 626.317 26.0257 604.166 24.8643C582.015 23.7028 573.356 32.4138 573.356 32.4138C573.356 32.4138 562.28 39.9636 573.356 48.6746C579.446 53.4646 590.673 55.3256 601.166 51.7072C611.658 48.0887 607.663 38.2212 607.663 38.2212C607.663 38.2212 622.568 40.8345 622.568 52.4494C622.568 64.0642 598.673 72.2234 579.934 70.2583C546.707 66.7738 542.375 48.6746 542.375 48.6746C542.375 48.6746 532.878 19.6376 514.807 14.4109C514.807 14.4109 501.571 6.88363 466.595 4.53819C431.619 2.19276 414.715 3.95757 354.673 9.18412C294.631 14.4107 236.922 0.472939 236.922 0.472939H1332.73C1430.05 -0.591179 1499.72 0.472939 1499.72 0.472939H1332.73C1312.01 0.699516 1290.04 1.02258 1267.22 1.47294C1137.22 4.03845 1202.22 18.9074 1202.22 18.9074C1202.22 18.9074 1187.5 26.7764 1174.72 25.9729C1153.08 24.6134 1161.22 9.07495 1121.22 3.03845C1104.22 0.472939 1072.93 2.10526 1059.72 3.03845Z" fill="#EDDA84"/>
<path d="M839.152 20.5107C877.147 10.8395 961.174 2.54045 1018.22 0.472961H723.662C723.662 0.472961 754.034 4.73708 754.034 11.5783C754.034 19.1063 746.623 22.5288 727.448 23.5107C710.314 24.3881 694.532 18.558 700.946 13.0994C706.361 8.49073 723.662 8.22604 723.662 8.22604C723.662 8.22604 700.922 6.40337 688.831 8.22604C676.145 10.1383 673.935 14.4138 673.388 17.8472C672.097 25.9513 677.773 35.0527 702.488 39.0538C726.292 42.9072 759.251 37.9874 775.153 35.2511C791.054 32.5147 810.142 27.8948 839.152 20.5107Z" fill="#E8C86E"/>
<circle cx="354.217" cy="52.473" r="7" fill="white" fill-opacity="0.7"/>
<circle cx="613.217" cy="66.473" r="7" fill="#EDDA84"/>
<circle cx="796.717" cy="98.973" r="5.5" fill="white" fill-opacity="0.7"/>
<circle cx="1103.72" cy="44.973" r="5.5" fill="white" fill-opacity="0.7"/>
<circle cx="360.717" cy="64.973" r="3.5" fill="white" fill-opacity="0.7"/>
<circle cx="629.717" cy="60.973" r="3.5" fill="#EDDA84"/>
<circle cx="747.717" cy="19.973" r="3.5" fill="#EDDA84"/>
<circle cx="1112.72" cy="59.973" r="3.5" fill="white" fill-opacity="0.7"/>
<circle cx="806.717" cy="107.973" r="3.5" fill="white" fill-opacity="0.7"/>
<circle cx="338.217" cy="54.473" r="2" fill="white" fill-opacity="0.7"/>
<circle cx="759.217" cy="11.473" r="2" fill="#EDDA84"/>
</svg>
