<svg width="1500" height="112" viewBox="0 0 1500 112" fill="none" xmlns="http://www.w3.org/2000/svg">
<path d="M1371.5 0.473404C1391.42 0.499359 1408 0.473404 1408 0.473404C1408 0.473404 1378.5 1.80551 1349 4.47301C1258.89 12.6208 1220.5 44.6405 1145 51.473C1117 54.0069 1098 44.473 1095 34.973C1094.05 31.9751 1092.78 21.0396 1105.5 17.4734C1107.34 16.9561 1091.39 15.7219 1069.5 15.9734C1049.87 16.199 1031.16 17.7424 1007.5 20.9734C966 26.6409 946.71 38.9734 946.71 38.9734C946.71 38.9734 937.143 43.2842 934.5 48.8788C931.857 54.4734 937.139 58.1521 939.5 58.9734C951 62.9734 980.5 48.8788 980.5 48.8788C980.5 48.8788 976.518 60.9734 971.5 66.8059C966.482 72.6384 957.919 77.5064 946.71 79.3677C935.5 81.229 926.009 81.1327 916.397 79.3677C906.786 77.6027 899.459 74.4662 894.246 68.3336C888.3 61.3373 894.246 48.8788 894.246 48.8788C894.246 48.8788 883.498 47.1567 877.341 48.8788C864.416 52.4941 851.693 60.1825 851.693 68.3336C851.693 80.8196 861.931 81.1618 858.105 90.6922C856.356 95.0477 850.016 100.543 838.868 103.178C828.379 105.658 816.717 105.016 809.139 103.178C805.058 102.189 793.531 98.2003 794.566 92.144C795.381 87.3757 810.888 83.4329 810.888 83.4329C810.888 83.4329 798.646 76.668 766.585 80.8196C766.585 80.8196 748.515 82.9734 728.112 88.6596C704.644 95.2002 680.368 100.452 651 101.973C626 103.269 612.5 102.101 599 99.984C585.5 97.8675 568.789 93.6881 552 84.4734C539.674 77.7084 530 69.9734 520 57.0092C510.417 44.5857 508 37.4734 492.5 32.0373C488.487 30.6299 477.5 28.9085 465 34.941C452.5 40.9734 444.119 50.9408 431 57.0092C422.839 60.784 413.404 64.4247 395.261 64.5588C382.285 64.6547 373.66 63.7807 364 58.8059C356 54.6862 351.667 47.3389 352 40.7484C352.246 35.8646 356.307 32.9323 359.954 31.0373C371.944 24.8059 393.5 27.8059 393.5 27.8059C393.5 27.8059 386.905 23.3059 370 23.3059C355.579 23.3059 316 32.0373 283.5 34.3059C203.684 39.8774 101 10.8474 45.5 10.3059C24.1357 10.0975 0 15.2299 0 15.2299V7.03427C0 7.03427 47.4751 2.39732 74 7.03427C175.5 24.778 227.5 31.1661 260.5 31.1661C293.939 31.1661 347.112 21.6913 360.868 20.4224C376.607 18.9705 383.161 18.9224 395.261 23.3059C404.761 26.7475 411 35.8577 411 35.8577C411 35.8577 399 32.0373 388.849 32.0373C379.431 32.0373 367.075 34.2795 366.115 40.7484C365.454 45.1992 367.28 49.1691 371.944 52.0728C379.812 56.9719 392.074 57.7205 404.588 57.0092C433.041 55.3916 439.416 42.922 450.639 34.941C467 23.3059 483.609 19.8452 497.5 25.9734C514.5 33.4734 513.5 37.0449 530 57.0092C546.5 76.9734 576.241 98.4253 638.5 96.4996C679.947 95.2176 727.529 84.0168 748.515 79.9484C769.5 75.8801 781.29 74.2427 800.978 77.0448C817.3 79.3677 823.712 85.1751 823.712 85.1751C823.712 85.1751 809.428 85.999 806.224 89.5307C801.778 94.4324 817.015 96.8285 827.793 96.4996C839.852 96.1316 848.778 90.6922 848.778 85.1751C848.778 77.0849 841.783 73.8507 844.697 64.5588C847.556 55.4451 862.635 44.3414 877.341 41.9734C893.464 39.3773 900.792 41.7146 906.5 41.9734C906.5 51.7825 907.728 66.4001 923 47.473C944.71 20.5676 1005.77 14.6637 1026.5 12.4734C1052.5 9.72658 1100 7.9734 1122.5 14.4734C1145 20.9734 1145 22.9134 1145 22.9134C1145 22.9134 1116.59 18.423 1109.5 22.9134C1105.74 25.2904 1104.5 28.8063 1105.5 31.473C1107.75 37.473 1117.5 41.9734 1135 41.9734C1225.65 41.9734 1266.26 0.336258 1371.5 0.473404Z" fill="#0D0D0D"/>
<path d="M1059.5 3.03845C911.5 13.4918 923 54.9729 923 54.9729C923 54.9729 925.493 63.4729 938 65.4729C950.507 67.4729 965.5 60.9729 965.5 60.9729C965.5 60.9729 956.985 76.8541 925.493 75.1635C894 73.4729 893.391 48.4498 910.391 38.9729C917.391 35.0707 917.891 34.4498 917.891 34.4498C917.891 34.4498 919.312 25.6385 882.588 32.4138C845.863 39.1891 801.532 71.6488 742.102 73.9368C712.956 75.059 693.136 74.1172 666.905 64.9353C640.673 55.7535 626.1 26.0257 603.949 24.8643C581.798 23.7028 573.139 32.4138 573.139 32.4138C573.139 32.4138 562.063 39.9636 573.139 48.6746C579.229 53.4646 590.456 55.3256 600.949 51.7072C611.441 48.0887 607.446 38.2212 607.446 38.2212C607.446 38.2212 622.351 40.8345 622.351 52.4494C622.351 64.0642 598.456 72.2234 579.717 70.2583C546.49 66.7738 542.158 48.6746 542.158 48.6746C542.158 48.6746 532.661 19.6376 514.59 14.4109C514.59 14.4109 501.354 6.88363 466.378 4.53819C431.402 2.19276 414.498 3.95757 354.456 9.18412C294.414 14.4107 236.705 0.472939 236.705 0.472939H1332.51C1429.83 -0.591179 1499.5 0.472939 1499.5 0.472939H1332.51C1311.79 0.699516 1289.82 1.02258 1267 1.47294C1137 4.03845 1202 18.9074 1202 18.9074C1202 18.9074 1187.29 26.7764 1174.5 25.9729C1152.86 24.6134 1161 9.07495 1121 3.03845C1104 0.472939 1072.71 2.10526 1059.5 3.03845Z" fill="#E8C86E"/>
<path d="M838.935 20.5107C876.93 10.8395 960.957 2.54045 1018 0.472961H723.445C723.445 0.472961 753.817 4.73708 753.817 11.5783C753.817 19.1063 746.406 22.5288 727.231 23.5107C710.097 24.3881 694.315 18.558 700.729 13.0994C706.144 8.49073 723.445 8.22604 723.445 8.22604C723.445 8.22604 700.706 6.40337 688.614 8.22604C675.928 10.1383 673.718 14.4138 673.171 17.8472C671.88 25.9513 677.556 35.0527 702.271 39.0538C726.075 42.9072 759.034 37.9874 774.936 35.2511C790.837 32.5147 809.925 27.8948 838.935 20.5107Z" fill="#EDDA84" fill-opacity="0.8"/>
<circle cx="354" cy="52.473" r="7" fill="#0D0D0D"/>
<circle cx="613" cy="66.473" r="7" fill="#E8C86E"/>
<circle cx="796.5" cy="98.973" r="5.5" fill="#0D0D0D"/>
<circle cx="1103.5" cy="44.973" r="5.5" fill="#0D0D0D"/>
<circle cx="360.5" cy="64.973" r="3.5" fill="#0D0D0D"/>
<circle cx="629.5" cy="60.973" r="3.5" fill="#E8C86E"/>
<circle cx="747.5" cy="19.973" r="3.5" fill="#E8C86E"/>
<circle cx="1112.5" cy="59.973" r="3.5" fill="#0D0D0D"/>
<circle cx="806.5" cy="107.973" r="3.5" fill="#0D0D0D"/>
<circle cx="338" cy="54.473" r="2" fill="#0D0D0D"/>
<circle cx="759" cy="11.473" r="2" fill="#E8C86E"/>
</svg>
