<svg width="1408" height="109" viewBox="0 0 1408 109" fill="none" xmlns="http://www.w3.org/2000/svg">
<path d="M1371.5 7.56253e-06C1391.41 0.180008 1408 0.255008 1408 0.255008C1408 0.255008 1378.5 1.39001 1349 3.78301C1258.89 10.74 1220.5 42.238 1145 48.468C1117 51.018 1098 41.586 1095 32.11C1094.05 29.119 1092.78 18.195 1105.5 14.537C1107.34 14.01 1091.38 12.889 1069.5 13.383C1049.86 13.912 1031.16 15.813 1007.5 19.584C966 26.379 946.71 39.284 946.71 39.284C946.71 39.284 937.143 43.885 934.5 49.559C931.857 55.234 937.139 58.753 939.5 59.502C951 63.155 980.5 48.202 980.5 48.202C980.5 48.202 976.518 60.409 971.5 66.385C966.482 72.362 957.919 77.482 946.71 79.679C935.5 81.879 926.009 82.071 916.398 80.597C906.786 79.12 899.459 76.2 894.246 70.22C888.3 63.395 894.246 50.765 894.246 50.765C894.246 50.765 883.498 49.35 877.341 51.244C864.416 55.206 851.693 63.216 851.693 71.367C851.693 83.853 861.931 83.938 858.105 93.566C856.356 97.966 850.016 103.617 838.868 106.512C828.379 109.22 816.717 108.81 809.139 107.109C805.059 106.19 793.531 102.383 794.566 96.311C795.381 91.531 810.888 87.333 810.888 87.333C810.888 87.333 798.646 80.773 766.585 85.329C766.585 85.329 748.515 87.626 728.112 93.402C704.644 99.96 680.368 105.144 651 106.488C626 107.571 612.5 106.271 599 104.016C585.5 101.754 568.789 97.391 552 87.99C539.674 81.089 530 73.249 520 60.178C510.417 47.654 508 40.517 492.5 34.923C488.487 33.476 477.5 31.647 465 37.561C452.5 43.478 444.119 53.37 431 59.322C422.839 63.027 413.404 66.587 395.261 66.568C382.285 66.556 373.66 65.611 364 60.556C356 56.37 351.668 48.987 352 42.399C352.247 37.517 356.307 34.619 359.954 32.754C371.944 26.622 393.5 29.801 393.5 29.801C393.5 29.801 386.905 25.246 370 25.106C355.579 24.986 316 33.388 283.5 35.385C203.684 40.34 101 10.861 45.5 10.278C24.136 10.073 0 15.21 0 15.21V7.01401C0 7.01401 47.475 2.36901 74 7.01401C175.5 25.067 227.5 31.798 260.5 32.056C293.939 32.332 347.112 23.302 360.868 22.147C376.607 20.825 383.161 20.831 395.261 25.315C404.761 28.836 411 37.999 411 37.999C411 37.999 399 34.078 388.849 33.993C379.431 33.915 367.075 36.055 366.115 42.516C365.454 46.961 367.28 50.946 371.944 53.889C379.812 58.853 392.074 59.703 404.588 59.097C433.041 57.723 439.416 45.309 450.639 37.428C467 25.944 483.609 22.643 497.5 28.909C514.5 36.584 513.5 40.145 530 60.285C546.5 80.429 576.241 102.21 638.5 100.914C679.947 99.908 727.529 88.761 748.515 84.601C769.5 80.361 781.29 78.591 800.978 81.113C817.3 83.15 823.712 88.833 823.712 88.833C823.712 88.833 809.428 89.925 806.224 93.512C801.778 98.488 817.015 100.616 827.793 100.074C839.853 99.444 848.778 93.796 848.778 88.279C848.778 80.189 841.783 77.119 844.697 67.759C847.556 58.578 862.635 47.099 877.341 44.338C893.465 41.286 900.792 43.41 906.5 43.499C906.5 53.308 907.728 67.89 923 48.503C944.71 20.939 1005.77 13.317 1026.5 10.643C1052.5 7.39401 1100 5.07301 1122.5 11.469C1145 17.969 1145 19.909 1145 19.909C1145 19.909 1116.59 15.436 1109.5 19.956C1105.74 22.353 1104.5 25.876 1105.5 28.537C1107.75 34.525 1117.5 38.983 1135 38.957C1225.65 39.636 1266.26 -0.0199924 1371.5 7.56253e-06Z" fill="#D3D9D4" fill-opacity="0.8"/>
<path d="M1332.51 0.452637C1311.79 0.679214 1289.82 1.00228 1267 1.45264C1137.16 4.01514 1201.85 18.8523 1202 18.8872C1201.95 18.9127 1187.26 26.7548 1174.5 25.9526C1152.86 24.593 1161 9.05454 1121 3.01807C1104 0.452618 1072.71 2.08488 1059.5 3.01807C911.721 13.4558 922.966 54.8291 923 54.9526C923 54.9526 925.493 63.4526 938 65.4526C950.492 67.4503 965.464 60.9681 965.5 60.9526C965.5 60.9526 956.985 76.8337 925.493 75.1431C894 73.4524 893.391 48.4295 910.391 38.9526C917.365 35.0653 917.888 34.4349 917.891 34.4302C917.891 34.4302 919.312 25.6187 882.588 32.394C845.864 39.1695 801.532 71.6284 742.102 73.9165C712.956 75.0387 693.136 74.0974 666.905 64.9155C640.673 55.7337 626.1 26.0056 603.949 24.8442C581.838 23.6848 573.17 32.363 573.139 32.394C573.139 32.394 562.063 39.9438 573.139 48.6548C579.23 53.4446 590.456 55.3053 600.949 51.687C611.401 48.0823 607.476 38.2766 607.446 38.2017C607.499 38.2109 622.351 40.8351 622.351 52.4292C622.351 64.044 598.456 72.2039 579.717 70.2388C546.552 66.7607 542.174 48.7225 542.158 48.6548C542.158 48.6548 532.661 19.6178 514.59 14.3911C514.534 14.3594 501.28 6.85854 466.378 4.51807C431.402 2.17266 414.498 3.93801 354.456 9.16455C294.414 14.3911 236.705 0.452637 236.705 0.452637H723.445C723.51 0.461773 753.817 4.72428 753.817 11.5581C753.817 19.0861 746.406 22.5088 727.231 23.4907C710.097 24.3681 694.315 18.5382 700.729 13.0796C706.144 8.47095 723.445 8.20557 723.445 8.20557C723.445 8.20557 700.705 6.38293 688.614 8.20557C675.928 10.1178 673.718 14.3942 673.171 17.8276C671.88 25.9315 677.557 35.0327 702.271 39.0337C726.075 42.887 759.034 37.9673 774.936 35.231C790.837 32.4947 809.926 27.8748 838.935 20.4907C876.93 10.8196 960.957 2.52013 1018 0.452637H1332.51Z" fill="#7BB8AB"/>
</svg>
